<svg width="104" height="104" viewBox="0 0 104 104" fill="none" xmlns="http://www.w3.org/2000/svg">
<rect width="104" height="104" rx="22" fill="#2B2B2B"/>
<rect x="22" y="38" width="57" height="31" fill="white"/>
<rect x="46" y="62" width="7" height="9" fill="#2B2B2B"/>
<mask id="path-4-outside-1_533_280" maskUnits="userSpaceOnUse" x="15" y="29" width="75" height="46" fill="black">
<rect fill="white" x="15" y="29" width="75" height="46"/>
<path d="M32.2614 74H16.7926V30.3636H32.3892C36.7784 30.3636 40.5568 31.2372 43.7244 32.9844C46.892 34.7173 49.3281 37.2102 51.0327 40.4631C52.7514 43.7159 53.6108 47.608 53.6108 52.1392C53.6108 56.6847 52.7514 60.5909 51.0327 63.858C49.3281 67.125 46.8778 69.6321 43.6818 71.3793C40.5 73.1264 36.6932 74 32.2614 74ZM26.0185 66.0952H31.8778C34.6051 66.0952 36.8991 65.6122 38.7599 64.6463C40.6349 63.6662 42.0412 62.1534 42.9787 60.108C43.9304 58.0483 44.4062 55.392 44.4062 52.1392C44.4062 48.9148 43.9304 46.2798 42.9787 44.2344C42.0412 42.1889 40.642 40.6832 38.7812 39.7173C36.9205 38.7514 34.6264 38.2685 31.8991 38.2685H26.0185V66.0952ZM66.9137 74H51.445V30.3636H67.0415C71.4308 30.3636 75.2092 31.2372 78.3768 32.9844C81.5444 34.7173 83.9805 37.2102 85.685 40.4631C87.4038 43.7159 88.2631 47.608 88.2631 52.1392C88.2631 56.6847 87.4038 60.5909 85.685 63.858C83.9805 67.125 81.5302 69.6321 78.3342 71.3793C75.1523 73.1264 71.3455 74 66.9137 74ZM60.6708 66.0952H66.5302C69.2575 66.0952 71.5515 65.6122 73.4123 64.6463C75.2873 63.6662 76.6935 62.1534 77.631 60.108C78.5827 58.0483 79.0586 55.392 79.0586 52.1392C79.0586 48.9148 78.5827 46.2798 77.631 44.2344C76.6935 42.1889 75.2944 40.6832 73.4336 39.7173C71.5728 38.7514 69.2788 38.2685 66.5515 38.2685H60.6708V66.0952Z"/>
</mask>
<path d="M32.2614 74H16.7926V30.3636H32.3892C36.7784 30.3636 40.5568 31.2372 43.7244 32.9844C46.892 34.7173 49.3281 37.2102 51.0327 40.4631C52.7514 43.7159 53.6108 47.608 53.6108 52.1392C53.6108 56.6847 52.7514 60.5909 51.0327 63.858C49.3281 67.125 46.8778 69.6321 43.6818 71.3793C40.5 73.1264 36.6932 74 32.2614 74ZM26.0185 66.0952H31.8778C34.6051 66.0952 36.8991 65.6122 38.7599 64.6463C40.6349 63.6662 42.0412 62.1534 42.9787 60.108C43.9304 58.0483 44.4062 55.392 44.4062 52.1392C44.4062 48.9148 43.9304 46.2798 42.9787 44.2344C42.0412 42.1889 40.642 40.6832 38.7812 39.7173C36.9205 38.7514 34.6264 38.2685 31.8991 38.2685H26.0185V66.0952ZM66.9137 74H51.445V30.3636H67.0415C71.4308 30.3636 75.2092 31.2372 78.3768 32.9844C81.5444 34.7173 83.9805 37.2102 85.685 40.4631C87.4038 43.7159 88.2631 47.608 88.2631 52.1392C88.2631 56.6847 87.4038 60.5909 85.685 63.858C83.9805 67.125 81.5302 69.6321 78.3342 71.3793C75.1523 73.1264 71.3455 74 66.9137 74ZM60.6708 66.0952H66.5302C69.2575 66.0952 71.5515 65.6122 73.4123 64.6463C75.2873 63.6662 76.6935 62.1534 77.631 60.108C78.5827 58.0483 79.0586 55.392 79.0586 52.1392C79.0586 48.9148 78.5827 46.2798 77.631 44.2344C76.6935 42.1889 75.2944 40.6832 73.4336 39.7173C71.5728 38.7514 69.2788 38.2685 66.5515 38.2685H60.6708V66.0952Z" fill="#DF0000"/>
<path d="M16.7926 74H15.7926V75H16.7926V74ZM16.7926 30.3636V29.3636H15.7926V30.3636H16.7926ZM43.7244 32.9844L43.2415 33.86L43.2445 33.8617L43.7244 32.9844ZM51.0327 40.4631L50.1469 40.9272L50.1485 40.9302L51.0327 40.4631ZM51.0327 63.858L50.1477 63.3924L50.1461 63.3954L51.0327 63.858ZM43.6818 71.3793L43.2021 70.5018L43.2005 70.5027L43.6818 71.3793ZM26.0185 66.0952H25.0185V67.0952H26.0185V66.0952ZM38.7599 64.6463L39.2207 65.5339L39.2232 65.5325L38.7599 64.6463ZM42.9787 60.108L42.0709 59.6885L42.0696 59.6913L42.9787 60.108ZM42.9787 44.2344L42.0696 44.651L42.072 44.6562L42.9787 44.2344ZM38.7812 39.7173L39.242 38.8298L39.242 38.8298L38.7812 39.7173ZM26.0185 38.2685V37.2685H25.0185V38.2685H26.0185ZM32.2614 74V73H16.7926V74V75H32.2614V74ZM16.7926 74H17.7926V30.3636H16.7926H15.7926V74H16.7926ZM16.7926 30.3636V31.3636H32.3892V30.3636V29.3636H16.7926V30.3636ZM32.3892 30.3636V31.3636C36.6453 31.3636 40.2502 32.2101 43.2415 33.86L43.7244 32.9844L44.2074 32.1087C40.8634 30.2643 36.9115 29.3636 32.3892 29.3636V30.3636ZM43.7244 32.9844L43.2445 33.8617C46.2359 35.4982 48.5323 37.8459 50.1469 40.9272L51.0327 40.4631L51.9184 39.9989C50.124 36.5745 47.5482 33.9364 44.2044 32.1071L43.7244 32.9844ZM51.0327 40.4631L50.1485 40.9302C51.7755 44.0095 52.6108 47.7336 52.6108 52.1392H53.6108H54.6108C54.6108 47.4823 53.7273 43.4223 51.9168 39.9959L51.0327 40.4631ZM53.6108 52.1392H52.6108C52.6108 56.5594 51.7754 60.2984 50.1477 63.3924L51.0327 63.858L51.9177 64.3235C53.7275 60.8834 54.6108 56.8099 54.6108 52.1392H53.6108ZM51.0327 63.858L50.1461 63.3954C48.532 66.4891 46.2223 68.8508 43.2021 70.5018L43.6818 71.3793L44.1615 72.2567C47.5334 70.4134 50.1243 67.7609 51.9193 64.3205L51.0327 63.858ZM43.6818 71.3793L43.2005 70.5027C40.1954 72.1528 36.5618 73 32.2614 73V74V75C36.8246 75 40.8046 74.1 44.1631 72.2558L43.6818 71.3793ZM26.0185 66.0952V67.0952H31.8778V66.0952V65.0952H26.0185V66.0952ZM31.8778 66.0952V67.0952C34.7188 67.0952 37.1812 66.5925 39.2207 65.5339L38.7599 64.6463L38.2992 63.7588C36.6171 64.6319 34.4914 65.0952 31.8778 65.0952V66.0952ZM38.7599 64.6463L39.2232 65.5325C41.3077 64.4429 42.8641 62.758 43.8878 60.5246L42.9787 60.108L42.0696 59.6913C41.2183 61.5488 39.9622 62.8895 38.2967 63.7601L38.7599 64.6463ZM42.9787 60.108L43.8865 60.5274C44.9194 58.2921 45.4062 55.4787 45.4062 52.1392H44.4062H43.4062C43.4062 55.3054 42.9414 57.8045 42.0709 59.6885L42.9787 60.108ZM44.4062 52.1392H45.4062C45.4062 48.8271 44.9191 46.0342 43.8854 43.8125L42.9787 44.2344L42.072 44.6562C42.9417 46.5254 43.4062 49.0025 43.4062 52.1392H44.4062ZM42.9787 44.2344L43.8878 43.8177C42.8647 41.5856 41.3154 39.9061 39.242 38.8298L38.7812 39.7173L38.3205 40.6049C39.9687 41.4604 41.2177 42.7923 42.0696 44.651L42.9787 44.2344ZM38.7812 39.7173L39.242 38.8298C37.2025 37.7711 34.7401 37.2685 31.8991 37.2685V38.2685V39.2685C34.5127 39.2685 36.6384 39.7317 38.3205 40.6049L38.7812 39.7173ZM31.8991 38.2685V37.2685H26.0185V38.2685V39.2685H31.8991V38.2685ZM26.0185 38.2685H25.0185V66.0952H26.0185H27.0185V38.2685H26.0185ZM51.445 74H50.445V75H51.445V74ZM51.445 30.3636V29.3636H50.445V30.3636H51.445ZM78.3768 32.9844L77.8938 33.86L77.8968 33.8617L78.3768 32.9844ZM85.685 40.4631L84.7993 40.9272L84.8009 40.9302L85.685 40.4631ZM85.685 63.858L84.8 63.3924L84.7984 63.3954L85.685 63.858ZM78.3342 71.3793L77.8545 70.5018L77.8528 70.5027L78.3342 71.3793ZM60.6708 66.0952H59.6708V67.0952H60.6708V66.0952ZM73.4123 64.6463L73.873 65.5339L73.8755 65.5325L73.4123 64.6463ZM77.631 60.108L76.7233 59.6885L76.722 59.6913L77.631 60.108ZM77.631 44.2344L76.722 44.651L76.7244 44.6562L77.631 44.2344ZM73.4336 39.7173L73.8943 38.8298L73.8943 38.8298L73.4336 39.7173ZM60.6708 38.2685V37.2685H59.6708V38.2685H60.6708ZM66.9137 74V73H51.445V74V75H66.9137V74ZM51.445 74H52.445V30.3636H51.445H50.445V74H51.445ZM51.445 30.3636V31.3636H67.0415V30.3636V29.3636H51.445V30.3636ZM67.0415 30.3636V31.3636C71.2976 31.3636 74.9026 32.2101 77.8938 33.86L78.3768 32.9844L78.8597 32.1087C75.5158 30.2643 71.5639 29.3636 67.0415 29.3636V30.3636ZM78.3768 32.9844L77.8968 33.8617C80.8883 35.4982 83.1846 37.8459 84.7993 40.9272L85.685 40.4631L86.5708 39.9989C84.7763 36.5745 82.2005 33.9364 78.8567 32.1071L78.3768 32.9844ZM85.685 40.4631L84.8009 40.9302C86.4279 44.0095 87.2631 47.7336 87.2631 52.1392H88.2631H89.2631C89.2631 47.4823 88.3797 43.4223 86.5692 39.9959L85.685 40.4631ZM88.2631 52.1392H87.2631C87.2631 56.5594 86.4277 60.2984 84.8 63.3924L85.685 63.858L86.57 64.3235C88.3798 60.8834 89.2631 56.8099 89.2631 52.1392H88.2631ZM85.685 63.858L84.7984 63.3954C83.1843 66.4891 80.8746 68.8508 77.8545 70.5018L78.3342 71.3793L78.8138 72.2567C82.1857 70.4134 84.7766 67.7609 86.5716 64.3205L85.685 63.858ZM78.3342 71.3793L77.8528 70.5027C74.8478 72.1528 71.2141 73 66.9137 73V74V75C71.4769 75 75.4569 74.1 78.8155 72.2558L78.3342 71.3793ZM60.6708 66.0952V67.0952H66.5302V66.0952V65.0952H60.6708V66.0952ZM66.5302 66.0952V67.0952C69.3712 67.0952 71.8336 66.5925 73.873 65.5339L73.4123 64.6463L72.9516 63.7588C71.2694 64.6319 69.1437 65.0952 66.5302 65.0952V66.0952ZM73.4123 64.6463L73.8755 65.5325C75.9601 64.4429 77.5165 62.758 78.5401 60.5246L77.631 60.108L76.722 59.6913C75.8706 61.5488 74.6145 62.8895 72.949 63.7601L73.4123 64.6463ZM77.631 60.108L78.5388 60.5274C79.5717 58.2921 80.0586 55.4787 80.0586 52.1392H79.0586H78.0586C78.0586 55.3054 77.5938 57.8045 76.7233 59.6885L77.631 60.108ZM79.0586 52.1392H80.0586C80.0586 48.8271 79.5714 46.0342 78.5377 43.8125L77.631 44.2344L76.7244 44.6562C77.5941 46.5254 78.0586 49.0025 78.0586 52.1392H79.0586ZM77.631 44.2344L78.5401 43.8177C77.517 41.5856 75.9678 39.9061 73.8943 38.8298L73.4336 39.7173L72.9729 40.6049C74.621 41.4604 75.87 42.7923 76.722 44.651L77.631 44.2344ZM73.4336 39.7173L73.8943 38.8298C71.8549 37.7711 69.3925 37.2685 66.5515 37.2685V38.2685V39.2685C69.165 39.2685 71.2907 39.7317 72.9729 40.6049L73.4336 39.7173ZM66.5515 38.2685V37.2685H60.6708V38.2685V39.2685H66.5515V38.2685ZM60.6708 38.2685H59.6708V66.0952H60.6708H61.6708V38.2685H60.6708Z" fill="white" mask="url(#path-4-outside-1_533_280)"/>
</svg>
