<svg width="75" height="46" viewBox="0 0 75 46" fill="none" xmlns="http://www.w3.org/2000/svg">
<mask id="path-1-outside-1_529_272" maskUnits="userSpaceOnUse" x="0" y="0" width="75" height="46" fill="black">
<rect fill="white" width="75" height="46"/>
<path d="M17.2614 45H1.79261V1.36364H17.3892C21.7784 1.36364 25.5568 2.23722 28.7244 3.98438C31.892 5.71733 34.3281 8.21023 36.0327 11.4631C37.7514 14.7159 38.6108 18.608 38.6108 23.1392C38.6108 27.6847 37.7514 31.5909 36.0327 34.858C34.3281 38.125 31.8778 40.6321 28.6818 42.3793C25.5 44.1264 21.6932 45 17.2614 45ZM11.0185 37.0952H16.8778C19.6051 37.0952 21.8991 36.6122 23.7599 35.6463C25.6349 34.6662 27.0412 33.1534 27.9787 31.108C28.9304 29.0483 29.4062 26.392 29.4062 23.1392C29.4062 19.9148 28.9304 17.2798 27.9787 15.2344C27.0412 13.1889 25.642 11.6832 23.7812 10.7173C21.9205 9.75142 19.6264 9.26847 16.8991 9.26847H11.0185V37.0952ZM51.9137 45H36.445V1.36364H52.0415C56.4308 1.36364 60.2092 2.23722 63.3768 3.98438C66.5444 5.71733 68.9805 8.21023 70.685 11.4631C72.4038 14.7159 73.2631 18.608 73.2631 23.1392C73.2631 27.6847 72.4038 31.5909 70.685 34.858C68.9805 38.125 66.5302 40.6321 63.3342 42.3793C60.1523 44.1264 56.3455 45 51.9137 45ZM45.6708 37.0952H51.5302C54.2575 37.0952 56.5515 36.6122 58.4123 35.6463C60.2873 34.6662 61.6935 33.1534 62.631 31.108C63.5827 29.0483 64.0586 26.392 64.0586 23.1392C64.0586 19.9148 63.5827 17.2798 62.631 15.2344C61.6935 13.1889 60.2944 11.6832 58.4336 10.7173C56.5728 9.75142 54.2788 9.26847 51.5515 9.26847H45.6708V37.0952Z"/>
</mask>
<path d="M17.2614 45H1.79261V1.36364H17.3892C21.7784 1.36364 25.5568 2.23722 28.7244 3.98438C31.892 5.71733 34.3281 8.21023 36.0327 11.4631C37.7514 14.7159 38.6108 18.608 38.6108 23.1392C38.6108 27.6847 37.7514 31.5909 36.0327 34.858C34.3281 38.125 31.8778 40.6321 28.6818 42.3793C25.5 44.1264 21.6932 45 17.2614 45ZM11.0185 37.0952H16.8778C19.6051 37.0952 21.8991 36.6122 23.7599 35.6463C25.6349 34.6662 27.0412 33.1534 27.9787 31.108C28.9304 29.0483 29.4062 26.392 29.4062 23.1392C29.4062 19.9148 28.9304 17.2798 27.9787 15.2344C27.0412 13.1889 25.642 11.6832 23.7812 10.7173C21.9205 9.75142 19.6264 9.26847 16.8991 9.26847H11.0185V37.0952ZM51.9137 45H36.445V1.36364H52.0415C56.4308 1.36364 60.2092 2.23722 63.3768 3.98438C66.5444 5.71733 68.9805 8.21023 70.685 11.4631C72.4038 14.7159 73.2631 18.608 73.2631 23.1392C73.2631 27.6847 72.4038 31.5909 70.685 34.858C68.9805 38.125 66.5302 40.6321 63.3342 42.3793C60.1523 44.1264 56.3455 45 51.9137 45ZM45.6708 37.0952H51.5302C54.2575 37.0952 56.5515 36.6122 58.4123 35.6463C60.2873 34.6662 61.6935 33.1534 62.631 31.108C63.5827 29.0483 64.0586 26.392 64.0586 23.1392C64.0586 19.9148 63.5827 17.2798 62.631 15.2344C61.6935 13.1889 60.2944 11.6832 58.4336 10.7173C56.5728 9.75142 54.2788 9.26847 51.5515 9.26847H45.6708V37.0952Z" fill="#DF0000"/>
<path d="M1.79261 45H0.792614V46H1.79261V45ZM1.79261 1.36364V0.363635H0.792614V1.36364H1.79261ZM28.7244 3.98438L28.2415 4.86002L28.2445 4.86167L28.7244 3.98438ZM36.0327 11.4631L35.1469 11.9272L35.1485 11.9302L36.0327 11.4631ZM36.0327 34.858L35.1477 34.3924L35.1461 34.3954L36.0327 34.858ZM28.6818 42.3793L28.2021 41.5018L28.2005 41.5027L28.6818 42.3793ZM11.0185 37.0952H10.0185V38.0952H11.0185V37.0952ZM23.7599 35.6463L24.2207 36.5339L24.2232 36.5325L23.7599 35.6463ZM27.9787 31.108L27.0709 30.6885L27.0696 30.6913L27.9787 31.108ZM27.9787 15.2344L27.0696 15.651L27.072 15.6562L27.9787 15.2344ZM23.7812 10.7173L24.242 9.82978L24.242 9.82978L23.7812 10.7173ZM11.0185 9.26847V8.26847H10.0185V9.26847H11.0185ZM17.2614 45V44H1.79261V45V46H17.2614V45ZM1.79261 45H2.79261V1.36364H1.79261H0.792614V45H1.79261ZM1.79261 1.36364V2.36364H17.3892V1.36364V0.363635H1.79261V1.36364ZM17.3892 1.36364V2.36364C21.6453 2.36364 25.2502 3.21013 28.2415 4.86001L28.7244 3.98438L29.2074 3.10874C25.8634 1.2643 21.9115 0.363635 17.3892 0.363635V1.36364ZM28.7244 3.98438L28.2445 4.86167C31.2359 6.49824 33.5323 8.84592 35.1469 11.9272L36.0327 11.4631L36.9184 10.9989C35.124 7.57453 32.5482 4.93642 29.2044 3.10708L28.7244 3.98438ZM36.0327 11.4631L35.1485 11.9302C36.7755 15.0095 37.6108 18.7336 37.6108 23.1392H38.6108H39.6108C39.6108 18.4823 38.7273 14.4223 36.9168 10.9959L36.0327 11.4631ZM38.6108 23.1392H37.6108C37.6108 27.5594 36.7754 31.2984 35.1477 34.3924L36.0327 34.858L36.9177 35.3235C38.7275 31.8834 39.6108 27.8099 39.6108 23.1392H38.6108ZM36.0327 34.858L35.1461 34.3954C33.532 37.4891 31.2223 39.8508 28.2021 41.5018L28.6818 42.3793L29.1615 43.2567C32.5334 41.4134 35.1243 38.7609 36.9193 35.3205L36.0327 34.858ZM28.6818 42.3793L28.2005 41.5027C25.1954 43.1528 21.5618 44 17.2614 44V45V46C21.8246 46 25.8046 45.1 29.1631 43.2558L28.6818 42.3793ZM11.0185 37.0952V38.0952H16.8778V37.0952V36.0952H11.0185V37.0952ZM16.8778 37.0952V38.0952C19.7188 38.0952 22.1812 37.5925 24.2207 36.5339L23.7599 35.6463L23.2992 34.7588C21.6171 35.6319 19.4914 36.0952 16.8778 36.0952V37.0952ZM23.7599 35.6463L24.2232 36.5325C26.3077 35.4429 27.8641 33.758 28.8878 31.5246L27.9787 31.108L27.0696 30.6913C26.2183 32.5488 24.9622 33.8895 23.2967 34.7601L23.7599 35.6463ZM27.9787 31.108L28.8865 31.5274C29.9194 29.2921 30.4062 26.4787 30.4062 23.1392H29.4062H28.4062C28.4062 26.3054 27.9414 28.8045 27.0709 30.6885L27.9787 31.108ZM29.4062 23.1392H30.4062C30.4062 19.8271 29.9191 17.0342 28.8854 14.8125L27.9787 15.2344L27.072 15.6562C27.9417 17.5254 28.4062 20.0025 28.4062 23.1392H29.4062ZM27.9787 15.2344L28.8878 14.8177C27.8647 12.5856 26.3154 10.9061 24.242 9.82978L23.7812 10.7173L23.3205 11.6049C24.9687 12.4604 26.2177 13.7923 27.0696 15.651L27.9787 15.2344ZM23.7812 10.7173L24.242 9.82978C22.2025 8.77114 19.7401 8.26847 16.8991 8.26847V9.26847V10.2685C19.5127 10.2685 21.6384 10.7317 23.3205 11.6049L23.7812 10.7173ZM16.8991 9.26847V8.26847H11.0185V9.26847V10.2685H16.8991V9.26847ZM11.0185 9.26847H10.0185V37.0952H11.0185H12.0185V9.26847H11.0185ZM36.445 45H35.445V46H36.445V45ZM36.445 1.36364V0.363635H35.445V1.36364H36.445ZM63.3768 3.98438L62.8938 4.86002L62.8968 4.86167L63.3768 3.98438ZM70.685 11.4631L69.7993 11.9272L69.8009 11.9302L70.685 11.4631ZM70.685 34.858L69.8 34.3924L69.7984 34.3954L70.685 34.858ZM63.3342 42.3793L62.8545 41.5018L62.8528 41.5027L63.3342 42.3793ZM45.6708 37.0952H44.6708V38.0952H45.6708V37.0952ZM58.4123 35.6463L58.873 36.5339L58.8755 36.5325L58.4123 35.6463ZM62.631 31.108L61.7233 30.6885L61.722 30.6913L62.631 31.108ZM62.631 15.2344L61.722 15.651L61.7244 15.6562L62.631 15.2344ZM58.4336 10.7173L58.8943 9.82978L58.8943 9.82978L58.4336 10.7173ZM45.6708 9.26847V8.26847H44.6708V9.26847H45.6708ZM51.9137 45V44H36.445V45V46H51.9137V45ZM36.445 45H37.445V1.36364H36.445H35.445V45H36.445ZM36.445 1.36364V2.36364H52.0415V1.36364V0.363635H36.445V1.36364ZM52.0415 1.36364V2.36364C56.2976 2.36364 59.9026 3.21013 62.8938 4.86001L63.3768 3.98438L63.8597 3.10874C60.5158 1.2643 56.5639 0.363635 52.0415 0.363635V1.36364ZM63.3768 3.98438L62.8968 4.86167C65.8883 6.49824 68.1846 8.84592 69.7993 11.9272L70.685 11.4631L71.5708 10.9989C69.7763 7.57453 67.2005 4.93642 63.8567 3.10708L63.3768 3.98438ZM70.685 11.4631L69.8009 11.9302C71.4279 15.0095 72.2631 18.7336 72.2631 23.1392H73.2631H74.2631C74.2631 18.4823 73.3797 14.4223 71.5692 10.9959L70.685 11.4631ZM73.2631 23.1392H72.2631C72.2631 27.5594 71.4277 31.2984 69.8 34.3924L70.685 34.858L71.57 35.3235C73.3798 31.8834 74.2631 27.8099 74.2631 23.1392H73.2631ZM70.685 34.858L69.7984 34.3954C68.1843 37.4891 65.8746 39.8508 62.8545 41.5018L63.3342 42.3793L63.8138 43.2567C67.1857 41.4134 69.7766 38.7609 71.5716 35.3205L70.685 34.858ZM63.3342 42.3793L62.8528 41.5027C59.8478 43.1528 56.2141 44 51.9137 44V45V46C56.4769 46 60.4569 45.1 63.8155 43.2558L63.3342 42.3793ZM45.6708 37.0952V38.0952H51.5302V37.0952V36.0952H45.6708V37.0952ZM51.5302 37.0952V38.0952C54.3712 38.0952 56.8336 37.5925 58.873 36.5339L58.4123 35.6463L57.9516 34.7588C56.2694 35.6319 54.1437 36.0952 51.5302 36.0952V37.0952ZM58.4123 35.6463L58.8755 36.5325C60.9601 35.4429 62.5165 33.758 63.5401 31.5246L62.631 31.108L61.722 30.6913C60.8706 32.5488 59.6145 33.8895 57.949 34.7601L58.4123 35.6463ZM62.631 31.108L63.5388 31.5274C64.5717 29.2921 65.0586 26.4787 65.0586 23.1392H64.0586H63.0586C63.0586 26.3054 62.5938 28.8045 61.7233 30.6885L62.631 31.108ZM64.0586 23.1392H65.0586C65.0586 19.8271 64.5714 17.0342 63.5377 14.8125L62.631 15.2344L61.7244 15.6562C62.5941 17.5254 63.0586 20.0025 63.0586 23.1392H64.0586ZM62.631 15.2344L63.5401 14.8177C62.517 12.5856 60.9678 10.9061 58.8943 9.82978L58.4336 10.7173L57.9729 11.6049C59.621 12.4604 60.87 13.7923 61.722 15.651L62.631 15.2344ZM58.4336 10.7173L58.8943 9.82978C56.8549 8.77114 54.3925 8.26847 51.5515 8.26847V9.26847V10.2685C54.165 10.2685 56.2907 10.7317 57.9729 11.6049L58.4336 10.7173ZM51.5515 9.26847V8.26847H45.6708V9.26847V10.2685H51.5515V9.26847ZM45.6708 9.26847H44.6708V37.0952H45.6708H46.6708V9.26847H45.6708Z" fill="white" mask="url(#path-1-outside-1_529_272)"/>
</svg>
