a<svg width="79" height="73" viewBox="0 0 79 73" fill="none" xmlns="http://www.w3.org/2000/svg">
<rect x="9" y="22" width="57" height="31" fill="black"/>
<rect x="33" y="46" width="7" height="9" fill="#2B2B2B"/>
<mask id="path-3-outside-1_533_280" maskUnits="userSpaceOnUse" x="2" y="13" width="75" height="46" fill="black">
<rect fill="white" x="2" y="13" width="75" height="46"/>
<path d="M19.2614 58H3.79261V14.3636H19.3892C23.7784 14.3636 27.5568 15.2372 30.7244 16.9844C33.892 18.7173 36.3281 21.2102 38.0327 24.4631C39.7514 27.7159 40.6108 31.608 40.6108 36.1392C40.6108 40.6847 39.7514 44.5909 38.0327 47.858C36.3281 51.125 33.8778 53.6321 30.6818 55.3793C27.5 57.1264 23.6932 58 19.2614 58ZM13.0185 50.0952H18.8778C21.6051 50.0952 23.8991 49.6122 25.7599 48.6463C27.6349 47.6662 29.0412 46.1534 29.9787 44.108C30.9304 42.0483 31.4062 39.392 31.4062 36.1392C31.4062 32.9148 30.9304 30.2798 29.9787 28.2344C29.0412 26.1889 27.642 24.6832 25.7812 23.7173C23.9205 22.7514 21.6264 22.2685 18.8991 22.2685H13.0185V50.0952ZM53.9137 58H38.445V14.3636H54.0415C58.4308 14.3636 62.2092 15.2372 65.3768 16.9844C68.5444 18.7173 70.9805 21.2102 72.685 24.4631C74.4038 27.7159 75.2631 31.608 75.2631 36.1392C75.2631 40.6847 74.4038 44.5909 72.685 47.858C70.9805 51.125 68.5302 53.6321 65.3342 55.3793C62.1523 57.1264 58.3455 58 53.9137 58ZM47.6708 50.0952H53.5302C56.2575 50.0952 58.5515 49.6122 60.4123 48.6463C62.2873 47.6662 63.6935 46.1534 64.631 44.108C65.5827 42.0483 66.0586 39.392 66.0586 36.1392C66.0586 32.9148 65.5827 30.2798 64.631 28.2344C63.6935 26.1889 62.2944 24.6832 60.4336 23.7173C58.5728 22.7514 56.2788 22.2685 53.5515 22.2685H47.6708V50.0952Z"/>
</mask>
<path d="M19.2614 58H3.79261V14.3636H19.3892C23.7784 14.3636 27.5568 15.2372 30.7244 16.9844C33.892 18.7173 36.3281 21.2102 38.0327 24.4631C39.7514 27.7159 40.6108 31.608 40.6108 36.1392C40.6108 40.6847 39.7514 44.5909 38.0327 47.858C36.3281 51.125 33.8778 53.6321 30.6818 55.3793C27.5 57.1264 23.6932 58 19.2614 58ZM13.0185 50.0952H18.8778C21.6051 50.0952 23.8991 49.6122 25.7599 48.6463C27.6349 47.6662 29.0412 46.1534 29.9787 44.108C30.9304 42.0483 31.4062 39.392 31.4062 36.1392C31.4062 32.9148 30.9304 30.2798 29.9787 28.2344C29.0412 26.1889 27.642 24.6832 25.7812 23.7173C23.9205 22.7514 21.6264 22.2685 18.8991 22.2685H13.0185V50.0952ZM53.9137 58H38.445V14.3636H54.0415C58.4308 14.3636 62.2092 15.2372 65.3768 16.9844C68.5444 18.7173 70.9805 21.2102 72.685 24.4631C74.4038 27.7159 75.2631 31.608 75.2631 36.1392C75.2631 40.6847 74.4038 44.5909 72.685 47.858C70.9805 51.125 68.5302 53.6321 65.3342 55.3793C62.1523 57.1264 58.3455 58 53.9137 58ZM47.6708 50.0952H53.5302C56.2575 50.0952 58.5515 49.6122 60.4123 48.6463C62.2873 47.6662 63.6935 46.1534 64.631 44.108C65.5827 42.0483 66.0586 39.392 66.0586 36.1392C66.0586 32.9148 65.5827 30.2798 64.631 28.2344C63.6935 26.1889 62.2944 24.6832 60.4336 23.7173C58.5728 22.7514 56.2788 22.2685 53.5515 22.2685H47.6708V50.0952Z" fill="#DF0000"/>
<path d="M3.79261 58H2.79261V59H3.79261V58ZM3.79261 14.3636V13.3636H2.79261V14.3636H3.79261ZM30.7244 16.9844L30.2415 17.86L30.2445 17.8617L30.7244 16.9844ZM38.0327 24.4631L37.1469 24.9272L37.1485 24.9302L38.0327 24.4631ZM38.0327 47.858L37.1477 47.3924L37.1461 47.3954L38.0327 47.858ZM30.6818 55.3793L30.2021 54.5018L30.2005 54.5027L30.6818 55.3793ZM13.0185 50.0952H12.0185V51.0952H13.0185V50.0952ZM25.7599 48.6463L26.2207 49.5339L26.2232 49.5325L25.7599 48.6463ZM29.9787 44.108L29.0709 43.6885L29.0696 43.6913L29.9787 44.108ZM29.9787 28.2344L29.0696 28.651L29.072 28.6562L29.9787 28.2344ZM25.7812 23.7173L26.242 22.8298L26.242 22.8298L25.7812 23.7173ZM13.0185 22.2685V21.2685H12.0185V22.2685H13.0185ZM19.2614 58V57H3.79261V58V59H19.2614V58ZM3.79261 58H4.79261V14.3636H3.79261H2.79261V58H3.79261ZM3.79261 14.3636V15.3636H19.3892V14.3636V13.3636H3.79261V14.3636ZM19.3892 14.3636V15.3636C23.6453 15.3636 27.2502 16.2101 30.2415 17.86L30.7244 16.9844L31.2074 16.1087C27.8634 14.2643 23.9115 13.3636 19.3892 13.3636V14.3636ZM30.7244 16.9844L30.2445 17.8617C33.2359 19.4982 35.5323 21.8459 37.1469 24.9272L38.0327 24.4631L38.9184 23.9989C37.124 20.5745 34.5482 17.9364 31.2044 16.1071L30.7244 16.9844ZM38.0327 24.4631L37.1485 24.9302C38.7755 28.0095 39.6108 31.7336 39.6108 36.1392H40.6108H41.6108C41.6108 31.4823 40.7273 27.4223 38.9168 23.9959L38.0327 24.4631ZM40.6108 36.1392H39.6108C39.6108 40.5594 38.7754 44.2984 37.1477 47.3924L38.0327 47.858L38.9177 48.3235C40.7275 44.8834 41.6108 40.8099 41.6108 36.1392H40.6108ZM38.0327 47.858L37.1461 47.3954C35.532 50.4891 33.2223 52.8508 30.2021 54.5018L30.6818 55.3793L31.1615 56.2567C34.5334 54.4134 37.1243 51.7609 38.9193 48.3205L38.0327 47.858ZM30.6818 55.3793L30.2005 54.5027C27.1954 56.1528 23.5618 57 19.2614 57V58V59C23.8246 59 27.8046 58.1 31.1631 56.2558L30.6818 55.3793ZM13.0185 50.0952V51.0952H18.8778V50.0952V49.0952H13.0185V50.0952ZM18.8778 50.0952V51.0952C21.7188 51.0952 24.1812 50.5925 26.2207 49.5339L25.7599 48.6463L25.2992 47.7588C23.6171 48.6319 21.4914 49.0952 18.8778 49.0952V50.0952ZM25.7599 48.6463L26.2232 49.5325C28.3077 48.4429 29.8641 46.758 30.8878 44.5246L29.9787 44.108L29.0696 43.6913C28.2183 45.5488 26.9622 46.8895 25.2967 47.7601L25.7599 48.6463ZM29.9787 44.108L30.8865 44.5274C31.9194 42.2921 32.4062 39.4787 32.4062 36.1392H31.4062H30.4062C30.4062 39.3054 29.9414 41.8045 29.0709 43.6885L29.9787 44.108ZM31.4062 36.1392H32.4062C32.4062 32.8271 31.9191 30.0342 30.8854 27.8125L29.9787 28.2344L29.072 28.6562C29.9417 30.5254 30.4062 33.0025 30.4062 36.1392H31.4062ZM29.9787 28.2344L30.8878 27.8177C29.8647 25.5856 28.3154 23.9061 26.242 22.8298L25.7812 23.7173L25.3205 24.6049C26.9687 25.4604 28.2177 26.7923 29.0696 28.651L29.9787 28.2344ZM25.7812 23.7173L26.242 22.8298C24.2025 21.7711 21.7401 21.2685 18.8991 21.2685V22.2685V23.2685C21.5127 23.2685 23.6384 23.7317 25.3205 24.6049L25.7812 23.7173ZM18.8991 22.2685V21.2685H13.0185V22.2685V23.2685H18.8991V22.2685ZM13.0185 22.2685H12.0185V50.0952H13.0185H14.0185V22.2685H13.0185ZM38.445 58H37.445V59H38.445V58ZM38.445 14.3636V13.3636H37.445V14.3636H38.445ZM65.3768 16.9844L64.8938 17.86L64.8968 17.8617L65.3768 16.9844ZM72.685 24.4631L71.7993 24.9272L71.8009 24.9302L72.685 24.4631ZM72.685 47.858L71.8 47.3924L71.7984 47.3954L72.685 47.858ZM65.3342 55.3793L64.8545 54.5018L64.8528 54.5027L65.3342 55.3793ZM47.6708 50.0952H46.6708V51.0952H47.6708V50.0952ZM60.4123 48.6463L60.873 49.5339L60.8755 49.5325L60.4123 48.6463ZM64.631 44.108L63.7233 43.6885L63.722 43.6913L64.631 44.108ZM64.631 28.2344L63.722 28.651L63.7244 28.6562L64.631 28.2344ZM60.4336 23.7173L60.8943 22.8298L60.8943 22.8298L60.4336 23.7173ZM47.6708 22.2685V21.2685H46.6708V22.2685H47.6708ZM53.9137 58V57H38.445V58V59H53.9137V58ZM38.445 58H39.445V14.3636H38.445H37.445V58H38.445ZM38.445 14.3636V15.3636H54.0415V14.3636V13.3636H38.445V14.3636ZM54.0415 14.3636V15.3636C58.2976 15.3636 61.9026 16.2101 64.8938 17.86L65.3768 16.9844L65.8597 16.1087C62.5158 14.2643 58.5639 13.3636 54.0415 13.3636V14.3636ZM65.3768 16.9844L64.8968 17.8617C67.8883 19.4982 70.1846 21.8459 71.7993 24.9272L72.685 24.4631L73.5708 23.9989C71.7763 20.5745 69.2005 17.9364 65.8567 16.1071L65.3768 16.9844ZM72.685 24.4631L71.8009 24.9302C73.4279 28.0095 74.2631 31.7336 74.2631 36.1392H75.2631H76.2631C76.2631 31.4823 75.3797 27.4223 73.5692 23.9959L72.685 24.4631ZM75.2631 36.1392H74.2631C74.2631 40.5594 73.4277 44.2984 71.8 47.3924L72.685 47.858L73.57 48.3235C75.3798 44.8834 76.2631 40.8099 76.2631 36.1392H75.2631ZM72.685 47.858L71.7984 47.3954C70.1843 50.4891 67.8746 52.8508 64.8545 54.5018L65.3342 55.3793L65.8138 56.2567C69.1857 54.4134 71.7766 51.7609 73.5716 48.3205L72.685 47.858ZM65.3342 55.3793L64.8528 54.5027C61.8478 56.1528 58.2141 57 53.9137 57V58V59C58.4769 59 62.4569 58.1 65.8155 56.2558L65.3342 55.3793ZM47.6708 50.0952V51.0952H53.5302V50.0952V49.0952H47.6708V50.0952ZM53.5302 50.0952V51.0952C56.3712 51.0952 58.8336 50.5925 60.873 49.5339L60.4123 48.6463L59.9516 47.7588C58.2694 48.6319 56.1437 49.0952 53.5302 49.0952V50.0952ZM60.4123 48.6463L60.8755 49.5325C62.9601 48.4429 64.5165 46.758 65.5401 44.5246L64.631 44.108L63.722 43.6913C62.8706 45.5488 61.6145 46.8895 59.949 47.7601L60.4123 48.6463ZM64.631 44.108L65.5388 44.5274C66.5717 42.2921 67.0586 39.4787 67.0586 36.1392H66.0586H65.0586C65.0586 39.3054 64.5938 41.8045 63.7233 43.6885L64.631 44.108ZM66.0586 36.1392H67.0586C67.0586 32.8271 66.5714 30.0342 65.5377 27.8125L64.631 28.2344L63.7244 28.6562C64.5941 30.5254 65.0586 33.0025 65.0586 36.1392H66.0586ZM64.631 28.2344L65.5401 27.8177C64.517 25.5856 62.9678 23.9061 60.8943 22.8298L60.4336 23.7173L59.9729 24.6049C61.621 25.4604 62.87 26.7923 63.722 28.651L64.631 28.2344ZM60.4336 23.7173L60.8943 22.8298C58.8549 21.7711 56.3925 21.2685 53.5515 21.2685V22.2685V23.2685C56.165 23.2685 58.2907 23.7317 59.9729 24.6049L60.4336 23.7173ZM53.5515 22.2685V21.2685H47.6708V22.2685V23.2685H53.5515V22.2685ZM47.6708 22.2685H46.6708V50.0952H47.6708H48.6708V22.2685H47.6708Z" fill="black" mask="url(#path-3-outside-1_533_280)"/>
</svg>
